# xmcd
# 
# Track frame offsets:
#     150
#     16672
#     29657
#     49017
#     62852
#     84837
#     98227
#     123310
#     137545
#     151405
# 
# Disc length: 2203
# 
# Revision: 4
# Processed by: cddbd v1.5.2PL0 Copyright (c) Steve Scherf et al.
# Submitted via: fre:ac v1.0.27
# 
DISCID=7608990a
DTITLE=Various Artist - Jazz Music For The Blues
DYEAR=2004
DGENRE=Jazz
TTITLE0=Joe Williams - Everyday I Have The Blues
TTITLE1=Big Joe Turner - Careless Love
TTITLE2=Jimmy Witherspoon with Jay McShann Band - Confessin' The Blues
TTITLE3=Sidney Bechet and His Rytthm - Sidney's Blues
TTITLE4=Camemn McRae - Monkery's The Blues
TTITLE5=Jimmy Yancey - Crying In My Sleep
TTITLE6=Henry "Red" Allen's All Stars - Let Me Miss You, Baby
TTITLE7=Earl Hines with Billy Eckstine - Stormy Monday Blues
TTITLE8=Mildred Bailey with The Ellis Larkins Trio - That Ain't Right
TTITLE9=Joe Williams with Jack Teagarden's Big Eight - St Louis Blues
EXTD=Jazz Bistro for the Soul Collection, Disc 2 (Madacy DCR12760) ID3G:   8 YEAR: 2004
EXTT0=Joe Williams
EXTT1=Joe Turner - 
EXTT2=Jimmy Witherspoon with Jay McShann and his Orchestra
EXTT3=Sidney Bechet
EXTT4=Carmen McRae
EXTT5=Jimmy Yancey
EXTT6=Henry "Red" Allen's All Stars, Coleman Hawkins (tenor sax)
EXTT7=Earl Hines and his Orchestra, Billy Eckstine (vocal)
EXTT8=Ellis Larkings Trio, Mildred Bailey (vocal)
EXTT9=Jack Teagarden's Big Eight, Joe Williams
PLAYORDER=
